<svg width="14" height="14" viewBox="0 0 14 14" fill="none" xmlns="http://www.w3.org/2000/svg">
<path d="M6.99991 11.6668C7.1632 11.6669 7.3208 11.7268 7.44283 11.8353C7.56485 11.9438 7.64281 12.0933 7.66191 12.2555L7.66658 12.3335V13.0002C7.66639 13.1701 7.60133 13.3335 7.48468 13.4571C7.36803 13.5806 7.20861 13.655 7.03898 13.6649C6.86935 13.6749 6.70233 13.6197 6.57202 13.5107C6.44172 13.4016 6.35798 13.2469 6.33791 13.0782L6.33325 13.0002V12.3335C6.33325 12.1567 6.40348 11.9871 6.52851 11.8621C6.65353 11.7371 6.8231 11.6668 6.99991 11.6668ZM11.2086 10.2735L11.2712 10.3288L11.7379 10.7955C11.8575 10.9155 11.9269 11.0765 11.9321 11.2458C11.9372 11.4151 11.8778 11.58 11.7657 11.707C11.6537 11.8341 11.4975 11.9137 11.3289 11.9298C11.1603 11.9458 10.9919 11.8971 10.8579 11.7935L10.7952 11.7382L10.3286 11.2715C10.2135 11.1567 10.1444 11.0037 10.1342 10.8415C10.124 10.6793 10.1735 10.5189 10.2732 10.3906C10.373 10.2622 10.5162 10.1747 10.6759 10.1446C10.8357 10.1144 11.0009 10.1437 11.1406 10.2268L11.2086 10.2735ZM3.67125 10.3288C3.78603 10.4436 3.85498 10.5964 3.86517 10.7584C3.87536 10.9204 3.82608 11.0806 3.72658 11.2088L3.67125 11.2715L3.20458 11.7382C3.08461 11.8577 2.92362 11.9271 2.75432 11.9323C2.58502 11.9375 2.4201 11.878 2.29306 11.766C2.16602 11.654 2.08638 11.4978 2.07031 11.3292C2.05425 11.1606 2.10297 10.9922 2.20658 10.8582L2.26191 10.7955L2.72858 10.3288C2.8536 10.2038 3.02314 10.1336 3.19991 10.1336C3.37669 10.1336 3.54623 10.2038 3.67125 10.3288ZM1.66658 6.3335C1.8365 6.33368 1.99993 6.39875 2.12349 6.5154C2.24705 6.63204 2.3214 6.79146 2.33136 6.96109C2.34132 7.13072 2.28613 7.29775 2.17707 7.42805C2.06801 7.55835 1.91331 7.64209 1.74458 7.66216L1.66658 7.66683H0.999913C0.829993 7.66664 0.666558 7.60158 0.543 7.48493C0.419443 7.36828 0.345089 7.20886 0.335131 7.03923C0.325173 6.86961 0.380362 6.70258 0.489422 6.57227C0.598483 6.44197 0.753182 6.35823 0.921912 6.33816L0.999913 6.3335H1.66658ZM12.9999 6.3335C13.1698 6.33368 13.3333 6.39875 13.4568 6.5154C13.5804 6.63204 13.6547 6.79146 13.6647 6.96109C13.6747 7.13072 13.6195 7.29775 13.5104 7.42805C13.4013 7.55835 13.2466 7.64209 13.0779 7.66216L12.9999 7.66683H12.3332C12.1633 7.66664 11.9999 7.60158 11.8763 7.48493C11.7528 7.36828 11.6784 7.20886 11.6685 7.03923C11.6585 6.86961 11.7137 6.70258 11.8228 6.57227C11.9318 6.44197 12.0865 6.35823 12.2552 6.33816L12.3332 6.3335H12.9999ZM3.14191 2.20683L3.20458 2.26216L3.67125 2.72883C3.79081 2.8488 3.86023 3.00979 3.8654 3.17909C3.87057 3.34839 3.8111 3.5133 3.69908 3.64035C3.58706 3.76739 3.43088 3.84703 3.26226 3.8631C3.09365 3.87916 2.92524 3.83044 2.79125 3.72683L2.72858 3.6715L2.26191 3.20483C2.14731 3.08995 2.07853 2.93721 2.06849 2.77525C2.05845 2.61329 2.10782 2.45323 2.20735 2.32507C2.30689 2.19691 2.44975 2.10945 2.60916 2.07909C2.76857 2.04873 2.93357 2.07756 3.07325 2.16016L3.14191 2.20683ZM11.7379 2.26216C11.8527 2.37696 11.9217 2.52969 11.9318 2.69171C11.942 2.85373 11.8927 3.01389 11.7932 3.14216L11.7379 3.20483L11.2712 3.6715C11.1513 3.79106 10.9903 3.86048 10.821 3.86565C10.6517 3.87082 10.4868 3.81135 10.3597 3.69933C10.2327 3.58731 10.153 3.43113 10.137 3.26251C10.1209 3.0939 10.1696 2.92549 10.2732 2.7915L10.3286 2.72883L10.7952 2.26216C10.9203 2.13718 11.0898 2.06697 11.2666 2.06697C11.4434 2.06697 11.6129 2.13718 11.7379 2.26216ZM6.99991 0.333496C7.1632 0.333518 7.3208 0.393467 7.44283 0.501973C7.56485 0.610479 7.64281 0.759995 7.66191 0.922163L7.66658 1.00016V1.66683C7.66639 1.83675 7.60133 2.00018 7.48468 2.12374C7.36803 2.2473 7.20861 2.32165 7.03898 2.33161C6.86935 2.34157 6.70233 2.28638 6.57202 2.17732C6.44172 2.06826 6.35798 1.91356 6.33791 1.74483L6.33325 1.66683V1.00016C6.33325 0.823352 6.40348 0.653782 6.52851 0.528758C6.65353 0.403734 6.8231 0.333496 6.99991 0.333496ZM6.99991 3.66683C7.65303 3.66679 8.29177 3.85862 8.8368 4.2185C9.38182 4.57837 9.80912 5.09043 10.0656 5.69107C10.3221 6.29171 10.3965 6.95447 10.2796 7.59704C10.1626 8.2396 9.85948 8.83365 9.4078 9.3054C8.95612 9.77715 8.37581 10.1058 7.73893 10.2506C7.10206 10.3953 6.43669 10.3498 5.82547 10.1197C5.21425 9.88952 4.6841 9.48488 4.30088 8.95601C3.91767 8.42713 3.69826 7.79733 3.66991 7.14483L3.66658 7.00016L3.66991 6.8555C3.70719 5.99733 4.07432 5.18668 4.69473 4.5926C5.31514 3.99852 6.14094 3.66688 6.99991 3.66683Z" fill="white"/>
</svg>
