<svg width="45" height="45" viewBox="0 0 45 45" fill="none" xmlns="http://www.w3.org/2000/svg">
<path fill-rule="evenodd" clip-rule="evenodd" d="M0 22.5C0 10.0736 10.0736 0 22.5 0C34.9264 0 45 10.0736 45 22.5C45 34.9264 34.9264 45 22.5 45C10.0736 45 0 34.9264 0 22.5ZM18.1974 19.1099C18.1991 21.1575 18.1991 23.2058 18.1974 25.2541C18.1974 25.7744 17.9194 26.0898 17.4621 26.0911C16.576 26.0931 15.69 26.0937 14.8034 26.0911C13.1271 26.0865 11.7694 24.8353 11.4066 22.9676C11.4027 22.9481 11.4017 22.9267 11.4007 22.905C11.3981 22.8471 11.3954 22.7867 11.3367 22.753V21.6267C11.3925 21.5441 11.4052 21.4469 11.4178 21.3499L11.4178 21.3498C11.4236 21.3055 11.4294 21.2613 11.4393 21.2184C11.8301 19.5051 13.1414 18.3036 14.7014 18.2644C15.4812 18.2444 16.2614 18.2503 17.0414 18.2561H17.0415H17.0417H17.0419H17.0421C17.1836 18.2572 17.3251 18.2582 17.4666 18.2591C17.9165 18.2618 18.1974 18.5962 18.1974 19.1099ZM28.9816 20.2283V20.052C28.922 20.0464 28.882 20.0716 28.8437 20.0957C28.8318 20.1031 28.8201 20.1105 28.8079 20.1168C28.6357 20.2064 28.4645 20.2983 28.2933 20.3903C27.9305 20.5851 27.5676 20.78 27.1944 20.9525C26.4294 21.3058 25.683 21.2155 25.0136 20.7083C24.3495 20.2047 24.0779 19.5066 24.1806 18.6776C24.2407 18.1922 24.3207 17.7062 24.433 17.2305C24.5166 16.8766 24.4709 16.6136 24.1668 16.3906C24.0448 16.3015 23.9637 16.2615 23.8135 16.3124C22.973 16.5975 22.1305 16.8768 21.2879 17.1562L21.2877 17.1563L21.2875 17.1564L21.2846 17.1573L21.2818 17.1582C20.9282 17.2755 20.5745 17.3928 20.221 17.5104C19.9735 17.5928 19.7269 17.6773 19.4759 17.7633L19.179 17.865C19.5209 18.3352 19.6351 18.8418 19.6321 19.3963C19.6219 21.1864 19.6219 22.9765 19.6321 24.7666C19.6357 25.3284 19.5263 25.8441 19.1814 26.3185C19.1926 26.3234 19.2024 26.3277 19.2111 26.3316C19.2298 26.3399 19.2439 26.3461 19.2583 26.3507L21.1037 26.9656L21.1086 26.9673L21.1357 26.9763C23.125 27.6393 25.1142 28.3022 27.1037 28.9637C27.3573 29.0479 27.6205 29.0552 27.8801 28.9904C28.5586 28.8213 28.9804 28.2511 28.981 27.5021C28.9819 25.6836 28.9818 23.8652 28.9817 22.0468L28.9816 20.2283ZM31.9805 16.5526C31.8787 16.655 31.8326 16.7445 31.8612 16.9058C31.9399 17.3458 32.0113 17.7875 32.0827 18.2291L32.0827 18.2292C32.1354 18.5548 32.188 18.8805 32.2436 19.2055C32.3015 19.5439 32.2752 19.8516 31.9898 20.0687C31.7086 20.282 31.425 20.2342 31.1309 20.0668C30.8085 19.8835 30.4834 19.7054 30.1583 19.5273C29.8332 19.3492 29.5081 19.1711 29.1857 18.9878C29.0418 18.9057 28.9354 18.8983 28.7875 18.9823C28.111 19.3673 27.4287 19.7419 26.7435 20.1104C26.2225 20.3905 25.6758 20.0405 25.6934 19.3747C25.7642 18.9387 25.8425 18.4587 25.9223 17.9695L25.9834 17.5949C25.9863 17.577 25.9882 17.5587 25.99 17.5404C25.9936 17.5048 25.9971 17.4693 26.0091 17.4373C26.2178 16.8892 26.0214 16.511 25.6051 16.1541C25.306 15.8976 25.033 15.6079 24.7598 15.3181L24.7598 15.3181L24.7597 15.318C24.6276 15.1778 24.4954 15.0375 24.3603 14.901C24.1404 14.6791 24.0176 14.4259 24.113 14.1015C24.2094 13.7729 24.4328 13.6141 24.7526 13.5675C25.1126 13.5153 25.4721 13.4597 25.8315 13.4042L25.8319 13.4041C26.2354 13.3418 26.6388 13.2795 27.0428 13.2218C27.1767 13.2028 27.2428 13.1451 27.2995 13.0225C27.4545 12.6874 27.6124 12.3537 27.7702 12.02L27.7703 12.0198L27.7705 12.0195C27.9512 11.6373 28.132 11.2551 28.3087 10.8706C28.4466 10.5708 28.6565 10.4108 28.974 10.4083C29.3014 10.4065 29.5154 10.5696 29.6569 10.8786C29.8182 11.2309 29.984 11.5809 30.1498 11.9309C30.3135 12.2763 30.4771 12.6217 30.6363 12.9692C30.71 13.1292 30.7918 13.204 30.9707 13.2279C31.5099 13.3001 32.0476 13.3854 32.5853 13.4706L32.5855 13.4707C32.8104 13.5063 33.0353 13.542 33.2604 13.5767C33.5457 13.6209 33.7421 13.7821 33.8386 14.066C33.9398 14.3633 33.8643 14.6257 33.6556 14.8409C33.1007 15.4148 32.5424 15.9855 31.9805 16.5526ZM18.1376 31.3258C18.166 31.2138 18.1951 31.0986 18.1956 30.9845C18.199 29.9654 18.1987 28.9459 18.1984 27.9182C18.1984 27.6372 18.1983 27.3555 18.1983 27.0731C17.8231 27.2073 17.4433 27.1972 17.0647 27.1871C16.9339 27.1837 16.8033 27.1802 16.673 27.1827C16.1877 27.1916 15.702 27.1886 15.2166 27.1856C15.1163 27.185 15.0159 27.1844 14.9155 27.1839H14.9154C14.7521 27.1833 14.5866 27.1826 14.4272 27.1526C14.3081 27.1303 14.2775 27.1495 14.2775 27.2862C14.2795 27.7674 14.2789 28.2487 14.2784 28.73C14.2776 29.4348 14.2769 30.1396 14.284 30.8442C14.2944 31.8976 15.0428 32.8053 15.9847 32.9371C16.9604 33.0738 17.8716 32.4044 18.1295 31.3583C18.1322 31.3475 18.1349 31.3367 18.1376 31.3258Z" fill="url(#paint0_linear_7002_235)"/>
<defs>
<linearGradient id="paint0_linear_7002_235" x1="22.5" y1="-7.62884e-08" x2="25.0519" y2="44.8599" gradientUnits="userSpaceOnUse">
<stop stop-color="#5BD187"/>
<stop offset="1" stop-color="#227D94"/>
</linearGradient>
</defs>
</svg>
